<?xml version="1.0" encoding="UTF-8"?>
<!DOCTYPE svg PUBLIC "-//W3C//DTD SVG 1.1//EN" "http://www.w3.org/Graphics/SVG/1.1/DTD/svg11.dtd">
<!-- Creator: CorelDRAW 2019 (64 Bit) -->
<svg xmlns="http://www.w3.org/2000/svg" xml:space="preserve" width="31.7032mm" height="33mm" version="1.1" style="shape-rendering:geometricPrecision; text-rendering:geometricPrecision; image-rendering:optimizeQuality; fill-rule:evenodd; clip-rule:evenodd"
viewBox="0 0 4866.29 5065.34"
 xmlns:xlink="http://www.w3.org/1999/xlink">
 <defs>
  <style type="text/css">
   <![CDATA[
    .fil0 {fill:#848688}
   ]]>
  </style>
 </defs>
 <g id="Camada_x0020_1">
  <metadata id="CorelCorpID_0Corel-Layer"/>
  <path class="fil0" d="M3194.48 1323.36c-697.79,92.3 -1288.25,719.88 -1170.37,1542.9 96.92,676.62 737.84,1279.2 1551.51,1151.14 681.38,-107.23 1256.96,-733.63 1142.45,-1548.66 -96.13,-684.27 -734.21,-1249.79 -1523.59,-1145.38zm-2812.42 1950.31l-0.71 309.85 415.83 5.59 0.48 -409.22 -415.83 1.24 0.23 92.54zm-382.06 689.24l1174.42 4.96 -0.49 -1166.99 -1173.93 4.05 0 1157.98zm228.89 -228.17l722.43 9.42 -1.6 -716.9 -722.87 -2.04 2.04 709.52zm-228.89 -2566.21l1174.99 4.41 -1.5 -1172.93 -1173.49 0 0 1168.53zm228.75 -227.46l716.56 5.96 3.84 -719.46 -718.59 -2.35 -1.81 715.86zm153.66 -152.54l412.47 5.65 2.98 -417.69 -414.7 1.43 -0.75 410.61zm1302.85 2284.93c-29.18,22 12.63,15.96 -69.38,25.17l-248.2 -2.49 3.35 526.78 265.72 0.03 3.16 -257.18 332.44 -1.21c-0.81,-23.22 -102.77,-518.02 -114.31,-553.37l-175.69 -8.55 2.92 270.81zm-39.85 877.44l329.11 13.46 -6.48 -284.99 -318.41 2.87 -4.22 268.66zm-739.29 -2199.4l-256.35 2.44 -5.57 255.2 -322.12 -2.19 0.57 280.28 312.99 0.08 13.19 271.3 563.68 3.09 1.41 -280.39 -284.63 -1.92 -0.25 -531.32 308.77 1.15 -4.8 -279.58 -318.43 -1.17 -8.46 283.03zm-853.6 233.42l280.88 12.37 -2.21 -547.23 -272.29 0.35 -6.39 534.5zm2120.75 -1984.91l-787.52 0 -0.31 566.69 298.38 0.09 0.51 -297.72 489.83 -3.79 -0.89 -265.27zm-74.03 640.95l208.25 1.14 2.67 500.26 280.16 12.37 0.17 -757.45 -490.56 0.57 -0.69 243.12zm-415.77 264.99l398.5 2.92 -1 -281.57 -391.5 -0.91 -6 279.56zm-4.57 528.05l-268.72 -1.44 -0.66 581.9 324.73 0.21 1.83 -232.41 357.8 -10.62 0.41 -330.78 -205.85 -10.94 -5.36 -130.06 208.72 -6.05 11.8 -205.1 -415.71 1.53 -8.99 343.75zm1520.88 -640.35l407.82 0.48 3.67 -417.29 -411.9 -0.77 0.41 417.58zm788.8 -793.65l-1165.95 0 -0.29 1172.41 1166.69 0.32 -0.45 -1172.73zm-944.98 947.42l716.1 -0.38 5.54 -721.24 -716.64 -0.49 -5 722.12zm1522.99 4117.92l75.49 0c121.6,-81.37 136.52,-56.23 224.21,-174.57l0 -107.32c-155.71,-221.14 -449.79,-787.81 -575.12,-937.46l-88.64 69.69c-133.26,107.78 -151.04,90.07 -282.92,154.29 23.44,82.86 368.05,632.22 458.04,776.01 93.31,149.09 60.15,117.15 188.94,219.36zm-1035.56 -3074.82l31.9 18.07c4.56,2.15 25.76,12.33 32.1,14.94 191.13,78.82 215,62.44 398.17,243.29 63.21,62.4 116.43,121.63 167.54,208.14 20.52,34.72 40.81,79.43 59.05,118.85l44.64 90.62c28.72,47.23 11.96,21.44 31.79,45.45 9.42,-252.3 -54.2,-497.43 -182.98,-650.17 -117.41,-139.28 -293.57,-273.96 -532.08,-298.1l-50.12 208.92zm-344.6 -382.43c-1438.36,286.71 -1009.09,2355.48 371.23,2126.18 526.64,-87.48 984.12,-605.98 879.45,-1249.33 -85.02,-522.51 -614.82,-1003.61 -1250.68,-876.86z"/>
 </g>
</svg>
